HIERARCHY
ROOT Hips
{
	OFFSET 0.000000 0.000000 0.000000
	CHANNELS 6 Xposition Yposition Zposition Zrotation Yrotation Xrotation 
	JOINT LHipJoint
	{
		OFFSET 0.000000 0.000000 0.000000
		CHANNELS 3 Zrotation Yrotation Xrotation
		JOINT LeftUpLeg
		{
			OFFSET 1.363060 -1.794630 0.839290
			CHANNELS 3 Zrotation Yrotation Xrotation
			JOINT LeftLeg
			{
				OFFSET 2.448110 -6.726130 0.000000
				CHANNELS 3 Zrotation Yrotation Xrotation
				JOINT LeftFoot
				{
					OFFSET 2.562200 -7.039590 0.000000
					CHANNELS 3 Zrotation Yrotation Xrotation
					JOINT LeftToeBase
					{
						OFFSET 0.157640 -0.433110 2.322550
						CHANNELS 3 Zrotation Yrotation Xrotation
						End Site
						{
							OFFSET 0.000000 0.000000 0.000000
						}
					}
				}
			}
		}
	}
	JOINT RHipJoint
	{
		OFFSET 0.000000 0.000000 0.000000
		CHANNELS 3 Zrotation Yrotation Xrotation
		JOINT RightUpLeg
		{
			OFFSET -1.305520 -1.794630 0.839290
			CHANNELS 3 Zrotation Yrotation Xrotation
			JOINT RightLeg
			{
				OFFSET -2.542530 -6.985550 0.000000
				CHANNELS 3 Zrotation Yrotation Xrotation
				JOINT RightFoot
				{
					OFFSET -2.568260 -7.056230 0.000000
					CHANNELS 3 Zrotation Yrotation Xrotation
					JOINT RightToeBase
					{
						OFFSET -0.164730 -0.452590 2.363150
						CHANNELS 3 Zrotation Yrotation Xrotation
						End Site
						{
							OFFSET 0.000000 0.000000 0.000000
						}
					}
				}
			}
		}
	}
	JOINT LowerBack
	{
		OFFSET 0.000000 0.000000 0.000000
		CHANNELS 3 Zrotation Yrotation Xrotation
		JOINT Spine
		{
			OFFSET 0.028270 2.035590 -0.193380
			CHANNELS 3 Zrotation Yrotation Xrotation
			JOINT Spine1
			{
				OFFSET 0.056720 2.048850 -0.042750
				CHANNELS 3 Zrotation Yrotation Xrotation
				JOINT Neck
				{
					OFFSET 0.000000 0.000000 0.000000
					CHANNELS 3 Zrotation Yrotation Xrotation
					JOINT Neck1
					{
						OFFSET -0.054170 1.746240 0.172020
						CHANNELS 3 Zrotation Yrotation Xrotation
						JOINT Head
						{
							OFFSET 0.104070 1.761360 -0.123970
							CHANNELS 3 Zrotation Yrotation Xrotation
							End Site
							{
								OFFSET 0.000000 0.000000 0.000000
							}
						}
					}
				}
				JOINT LeftShoulder
				{
					OFFSET 0.000000 0.000000 0.000000
					CHANNELS 3 Zrotation Yrotation Xrotation
					JOINT LeftArm
					{
						OFFSET 3.362410 1.200890 -0.311210
						CHANNELS 3 Zrotation Yrotation Xrotation
						JOINT LeftForeArm
						{
							OFFSET 4.983000 -0.000000 -0.000000
							CHANNELS 3 Zrotation Yrotation Xrotation
							JOINT LeftHand
							{
								OFFSET 3.483560 -0.000000 -0.000000
								CHANNELS 3 Zrotation Yrotation Xrotation
								JOINT LeftFingerBase
								{
									OFFSET 0.000000 0.000000 0.000000
									CHANNELS 3 Zrotation Yrotation Xrotation
									JOINT LeftHandIndex1
									{
										OFFSET 0.715260 -0.000000 -0.000000
										CHANNELS 3 Zrotation Yrotation Xrotation
										End Site
										{
											OFFSET 0.000000 0.000000 0.000000
										}
									}
								}
								JOINT LThumb
								{
									OFFSET 0.000000 0.000000 0.000000
									CHANNELS 3 Zrotation Yrotation Xrotation
									End Site
									{
										OFFSET 0.000000 0.000000 0.000000
									}
								}
							}
						}
					}
				}
				JOINT RightShoulder
				{
					OFFSET 0.000000 0.000000 0.000000
					CHANNELS 3 Zrotation Yrotation Xrotation
					JOINT RightArm
					{
						OFFSET -3.136600 1.374050 -0.404650
						CHANNELS 3 Zrotation Yrotation Xrotation
						JOINT RightForeArm
						{
							OFFSET -5.241900 -0.000000 -0.000000
							CHANNELS 3 Zrotation Yrotation Xrotation
							JOINT RightHand
							{
								OFFSET -3.444170 -0.000000 -0.000000
								CHANNELS 3 Zrotation Yrotation Xrotation
								JOINT RightFingerBase
								{
									OFFSET 0.000000 0.000000 0.000000
									CHANNELS 3 Zrotation Yrotation Xrotation
									JOINT RightHandIndex1
									{
										OFFSET -0.622530 -0.000000 -0.000000
										CHANNELS 3 Zrotation Yrotation Xrotation
										End Site
										{
											OFFSET 0.000000 0.000000 0.000000
										}
									}
								}
								JOINT RThumb
								{
									OFFSET 0.000000 0.000000 0.000000
									CHANNELS 3 Zrotation Yrotation Xrotation
									End Site
									{
										OFFSET 0.000000 0.000000 0.000000
									}
								}
							}
						}
					}
				}
			}
		}
	}
}
MOTION
Frames: 10
Frame Time: 0.008333
8.210100 19.881347 20.475355 177.392387 -4.534188 -163.631749 4.898672 3.032372 -1.456818 -29.527052 -9.448965 4.913369 1.477947 6.693487 21.097517 0.013993 -10.910083 -7.572222 7.714000 -15.904800 -51.525900 -10.284156 -3.952678 1.025452 13.938670 23.142802 -52.730022 -0.859229 -11.338638 27.280436 -0.246770 -7.701913 -6.631486 -4.652500 12.981400 -39.298900 -3.199009 -1.789985 7.255172 1.612765 -2.614855 -3.671626 4.098078 -1.701880 3.163345 -7.682930 -3.177964 -11.543767 7.164464 -2.384872 24.261201 2.468000 0.070900 9.661400 2.361795 -5.091678 1.379185 -88.823867 -11.740709 33.236861 15.194618 -25.879188 -4.590992 0.314872 1.387868 17.655013 33.125004 -20.633855 -13.971000 -7.125000 0.000000 0.000000 2.693900 3.892500 -2.507600 -1.659765 5.786861 2.251788 88.081046 -12.405133 -50.170241 0.979414 5.364887 -1.289493 -1.344869 -1.568656 50.668497 -12.834394 -36.848338 7.612000 7.125000 0.000000 0.000000 24.761600 -63.748100 -11.607000 
8.216430 20.009355 20.084035 177.722599 -4.140092 -163.258589 4.947950 3.011981 -1.478580 -29.341566 -9.350773 4.875556 1.639473 7.112996 22.363398 -0.060484 -8.869918 -5.756505 8.382200 -16.393300 -53.928000 -10.342870 -3.963407 0.997752 14.936114 23.395782 -52.092936 -1.010850 -11.588783 28.140749 -0.242588 -6.848423 -7.141276 -3.600800 11.609300 -34.363500 -2.219943 -1.745042 7.241762 1.684637 -2.539976 -3.716781 3.937552 -1.612015 2.971526 -7.790853 -2.914246 -11.173018 6.948313 -2.093518 23.581223 2.417200 0.114300 9.308800 2.387516 -5.089247 1.373684 -89.276319 -10.404392 32.478734 15.163559 -25.886823 -4.595269 0.263256 1.393520 17.232498 33.905342 -20.220807 -14.146400 -7.125000 0.000000 0.000000 3.268900 4.162600 -3.028000 -1.610593 5.730164 2.253693 87.330235 -11.907469 -49.794670 0.990801 5.314819 -1.296236 -1.296653 -1.577328 51.071240 -12.030093 -37.704127 7.326800 7.125000 0.000000 0.000000 26.544200 -64.331000 -12.859600 
8.227804 20.149702 19.685097 177.816730 -3.734361 -162.921804 5.076476 3.012082 -1.522645 -29.392298 -9.150344 4.484444 1.918925 7.808249 24.449209 -0.152984 -3.879543 -0.876770 8.108800 -16.198700 -52.953600 -10.432326 -3.974334 0.979532 16.003387 23.363725 -51.011205 -1.100360 -11.652905 28.497816 -0.242534 -5.976117 -7.474565 -3.393600 11.306600 -33.320900 -1.547705 -1.764245 7.298030 1.743962 -2.545852 -3.799903 3.859529 -1.567066 2.678202 -7.880006 -2.667456 -10.833541 6.564555 -1.759105 23.081204 2.305300 0.183500 9.043200 2.397590 -5.087160 1.362857 -89.624280 -9.199422 31.690952 14.678288 -25.353138 -4.399171 0.237805 1.385206 16.895263 33.816649 -19.792997 -13.842700 -7.125000 0.000000 0.000000 3.298900 4.692400 -3.023100 -1.545819 5.685959 2.248865 86.512628 -11.400485 -48.585006 1.026866 5.482294 -1.315494 -1.240342 -1.578549 50.950092 -11.774389 -38.338465 7.309100 7.125000 0.000000 0.000000 27.561500 -64.854600 -13.721800 
8.253770 20.286938 19.288412 177.822004 -3.597282 -162.506557 5.202545 2.990568 -1.540562 -29.267103 -9.146537 3.423847 2.406904 8.856450 27.633418 -0.073887 0.860132 3.221450 8.629700 -16.563500 -54.800600 -10.504628 -3.966971 0.936417 16.929294 23.054944 -49.767350 -1.123461 -11.579422 28.421702 -0.257887 -4.840169 -8.866614 -2.983600 10.668500 -31.169700 -1.029448 -1.821834 7.072084 1.805575 -2.615997 -3.866145 3.811936 -1.572007 2.601404 -8.032257 -2.474832 -10.619322 6.344938 -1.509356 22.669341 2.266400 0.230000 8.833200 2.384296 -5.072942 1.363260 -89.662139 -8.360196 31.518797 13.800922 -24.344315 -4.030720 0.247006 1.361393 16.487229 32.686724 -19.693149 -13.192700 -7.125000 0.000000 0.000000 2.605500 5.124500 -2.364900 -1.489693 5.618837 2.236312 85.807446 -10.803142 -46.069143 1.133639 5.952052 -1.327281 -1.176318 -1.549769 49.691379 -12.864952 -37.474668 7.808300 7.125000 0.000000 0.000000 25.474100 -64.438700 -12.371300 
8.288428 20.414195 18.899668 177.937334 -3.680461 -162.117536 5.334538 2.966440 -1.519467 -28.860450 -9.370601 1.893069 3.161829 10.185463 31.842412 0.076314 3.447626 6.357932 8.534100 -16.498400 -54.464300 -10.605592 -3.984768 0.901645 18.032911 22.568818 -48.424354 -1.131597 -11.433607 28.191931 -0.248761 -4.251470 -8.317817 -2.938400 10.594700 -30.924800 -0.532828 -1.899996 6.843605 1.902253 -2.715843 -3.965522 3.900031 -1.578837 2.428693 -8.214707 -2.312638 -10.335201 6.256000 -1.336742 22.200442 2.272200 0.252100 8.591200 2.361662 -5.066557 1.365510 -89.578799 -7.408434 31.911229 12.911427 -23.313347 -3.665501 0.279401 1.330655 16.175226 31.274394 -20.068500 -12.674100 -7.125000 0.000000 0.000000 1.645400 5.079700 -1.493900 -1.398101 5.574250 2.220740 85.056775 -10.411945 -41.579643 1.250798 6.991667 -1.377932 -1.052129 -1.585958 46.361450 -13.804234 -36.653709 8.215400 7.125000 0.000000 0.000000 23.601300 -63.993100 -11.166600 
8.324266 20.519455 18.518327 177.929853 -3.822440 -161.703349 5.475142 2.937889 -1.479043 -28.590257 -9.763238 0.103409 4.104541 11.623426 36.657656 0.348929 6.878843 9.750547 9.095400 -16.868700 -56.419400 -10.675825 -3.990375 0.840775 19.128206 21.716993 -47.178928 -1.148699 -11.304261 27.982915 -0.257194 -2.992462 -8.993963 -2.698700 10.190500 -29.596000 -0.261158 -1.957437 6.449349 1.984785 -2.799890 -4.066992 4.062427 -1.581615 2.315915 -8.521796 -2.144715 -9.820962 6.454133 -1.255253 21.495404 2.395600 0.235700 8.200700 2.334222 -5.068278 1.374195 -89.621723 -6.529823 32.014061 12.029663 -22.281833 -3.334509 0.329971 1.296780 16.893323 30.196331 -20.595979 -12.397600 -7.125000 0.000000 0.000000 0.875300 4.777300 -0.799400 -1.305852 5.497872 2.206834 84.283971 -9.955038 -36.754046 1.194608 8.295797 -1.461702 -0.884733 -1.666194 42.492368 -13.755769 -36.372631 8.165000 7.125000 0.000000 0.000000 23.331000 -63.761900 -10.906000 
8.360640 20.618922 18.144604 177.917715 -3.705705 -161.757795 5.625334 2.939850 -1.447462 -28.494693 -9.769795 -1.514678 5.139399 12.987526 41.597303 0.688302 11.567538 12.955947 10.097800 -17.464500 -59.814600 -10.762449 -4.008201 0.744856 20.478462 20.841557 -45.408330 -1.187994 -11.147081 27.822124 -0.242691 -2.038386 -8.766490 -2.792900 10.352000 -30.124200 -0.166940 -1.857806 6.434112 2.009142 -2.668755 -4.103326 4.229482 -1.488416 2.142578 -9.214785 -2.029575 -8.985253 7.170460 -1.346718 20.598790 2.783000 0.137600 7.683700 2.292711 -5.098298 1.394977 -89.745407 -5.888592 31.798408 11.156334 -21.229161 -3.026109 0.393365 1.256719 18.544525 29.213789 -20.944169 -12.069400 -7.125000 0.000000 0.000000 0.198200 4.649400 -0.181500 -1.250640 5.388268 2.198415 83.583565 -9.321572 -32.663050 1.000699 9.505366 -1.548850 -0.730704 -1.727402 39.278774 -13.547109 -36.105581 8.025000 7.125000 0.000000 0.000000 23.249900 -63.499900 -10.723900 
8.395405 20.718924 17.778392 178.309794 -3.129998 -162.179514 5.731127 2.959546 -1.409361 -28.064985 -9.099639 -3.382776 6.269417 14.263396 46.487933 0.523531 14.082963 11.102975 10.747800 -17.809400 -61.959800 -10.857684 -4.013626 0.612265 22.280259 20.416345 -43.032108 -1.202843 -10.895849 27.499188 -0.237303 -0.948419 -9.072914 -2.795200 10.355900 -30.137100 0.212994 -1.546896 6.673093 1.982850 -2.233613 -4.113663 4.049755 -1.277033 1.961799 -8.149409 -2.116640 -9.870033 6.207034 -1.234098 21.305164 2.235100 0.250200 8.167800 2.307767 -4.993106 1.367493 -89.654459 -5.153358 31.772249 10.420152 -20.331462 -2.784923 0.449420 1.225073 20.326485 28.635161 -21.289020 -11.940800 -7.125000 0.000000 0.000000 -0.220900 4.419600 0.203300 -1.183492 5.443384 2.177034 83.105556 -8.527201 -29.129730 0.791791 10.560056 -1.636390 -0.628241 -1.775612 36.508757 -13.894548 -36.032470 8.225700 7.125000 0.000000 0.000000 22.760000 -63.522800 -10.498000 
8.453991 20.817639 17.468619 178.523507 -3.111107 -162.239099 5.833042 2.960258 -1.287634 -27.469519 -9.158442 -6.411570 7.610078 15.531578 51.559786 0.249426 11.629150 6.480910 10.003900 -17.412100 -59.501500 -10.929158 -4.011855 0.490382 23.612747 19.992717 -41.111193 -1.161068 -10.596963 26.952666 -0.249889 -0.405188 -9.623677 -2.713500 10.216100 -29.679400 0.328957 -1.428969 7.016202 1.986301 -2.043290 -4.202288 4.107894 -1.148473 1.471819 -8.372524 -2.203565 -9.380714 6.464533 -1.448281 20.964236 2.364800 0.136700 7.969500 2.284986 -4.982334 1.369995 -89.498330 -4.375949 31.439693 9.917649 -19.718253 -2.643475 0.483387 1.211866 22.250601 28.848509 -21.435430 -12.118700 -7.125000 0.000000 0.000000 -0.105800 4.211400 0.097700 -1.154317 5.384667 2.149860 82.604349 -7.317964 -25.842935 0.599437 11.452156 -1.724433 -0.571559 -1.804068 34.162825 -15.055099 -36.223720 8.938300 7.125000 0.000000 0.000000 21.652000 -63.976400 -10.191000 
8.496910 20.919896 17.137172 178.773403 -2.390632 -162.722278 5.913234 2.982799 -1.218523 -27.150921 -8.522159 -8.689867 8.581792 16.313747 54.980388 0.138931 8.953734 3.167452 9.842600 -17.320400 -58.960800 -11.026331 -4.013452 0.326899 25.190295 19.814839 -38.359632 -1.090014 -10.116145 26.028395 -0.249849 0.395676 -9.872345 -2.622800 10.057900 -29.164300 0.421975 -1.166615 7.334812 1.923859 -1.677428 -4.143644 4.007667 -0.992255 1.449101 -8.337702 -2.198628 -9.704132 6.408296 -1.386584 21.131058 2.362500 0.167700 8.124200 2.255255 -4.901033 1.373728 -89.351600 -3.611270 30.652296 9.585911 -19.309753 -2.557377 0.499478 1.204298 24.006525 29.210755 -21.319302 -12.247800 -7.125000 0.000000 0.000000 0.148300 4.256500 -0.136900 -1.134475 5.293433 2.131397 81.995287 -5.636555 -22.673830 0.314366 12.378518 -1.826239 -0.527160 -1.817267 32.247384 -16.419535 -36.359565 9.768400 7.125000 0.000000 0.000000 20.252400 -64.444300 -9.724900 
